<svg xmlns="http://www.w3.org/2000/svg" version="1.1" xmlns:xlink="http://www.w3.org/1999/xlink" width="512" height="512" x="0" y="0" viewBox="0 0 64 64" style="enable-background:new 0 0 512 512" xml:space="preserve"><g><path d="M54.167 41.247a4.992 4.992 0 0 1-6.92 6.92ZM50 39a4.992 4.992 0 0 0-4.167 7.753l6.92-6.92A4.966 4.966 0 0 0 50 39Zm11 5a10.996 10.996 0 0 1-21.809 2H6a3.003 3.003 0 0 1-3-3V12a3.003 3.003 0 0 1 3-3h42a3.003 3.003 0 0 1 3 3v21.05A11.011 11.011 0 0 1 61 44ZM5 12v30.399l14.393-17.99a2.015 2.015 0 0 1 1.616-.75 1.983 1.983 0 0 1 1.573.836l5.42 7.089 5.501-5.501a1.974 1.974 0 0 1 1.524-.583 2.004 2.004 0 0 1 1.451.747l7.685 8.446A10.91 10.91 0 0 1 49 33.05V12a1.001 1.001 0 0 0-1-1H6a1.001 1.001 0 0 0-1 1Zm15.974 13.684L6.282 44h28.694Zm21.595 10.23-7.611-8.369-5.727 5.646L37.495 44H39a10.96 10.96 0 0 1 3.569-8.087ZM57 44a7 7 0 1 0-7 7 7.008 7.008 0 0 0 7-7ZM35 18a5 5 0 1 1 5 5 5.006 5.006 0 0 1-5-5Zm2 0a3 3 0 1 0 3-3 3.003 3.003 0 0 0-3 3Z" fill="#000000" opacity="1" data-original="#000000"></path></g></svg>