<?xml version="1.0" encoding="utf-8"?>
<!-- Generator: Adobe Illustrator 28.1.0, SVG Export Plug-In . SVG Version: 6.00 Build 0)  -->
<svg version="1.1" id="Слой_1" xmlns="http://www.w3.org/2000/svg" xmlns:xlink="http://www.w3.org/1999/xlink" x="0px" y="0px"
	 viewBox="0 0 16 15" style="enable-background:new 0 0 16 15;" xml:space="preserve">
<style type="text/css">
	.st0{fill:#1D1D1B;}
</style>
<path class="st0" d="M7.6,0.8c0.2-0.3,0.7-0.3,0.8,0l2,3.9c0.1,0.1,0.2,0.2,0.4,0.3l4.4,0.6c0.4,0.1,0.5,0.5,0.3,0.8l-3.2,3.1
	c-0.1,0.1-0.2,0.3-0.1,0.4l0.7,4.3c0.1,0.4-0.3,0.7-0.7,0.5l-3.9-2c-0.1-0.1-0.3-0.1-0.4,0l-3.9,2c-0.3,0.2-0.7-0.1-0.7-0.5l0.7-4.3
	c0-0.2,0-0.3-0.1-0.4L0.6,6.4C0.4,6.1,0.5,5.6,0.9,5.6L5.3,5c0.2,0,0.3-0.1,0.4-0.3L7.6,0.8z"/>
</svg>
